# xmcd
#
# Track frame offsets:
#  150
#  9730
#  18700
#  29290
#  36757
#  45937
#  54752
#  63877
#  73885
#  84682
#  93437
#  102675
#  115852
#  125060
#  134115
#  144097
#  154047
#  166627
#
# Disc length: 2373 seconds
#
# Revision: 2
# Processed by: cddbd v1.5.1PL2 Copyright (c) Steve Scherf et al.
# Submitted via: Collectorz.com Music Collector 6.9
#
DISCID=f1094312
DTITLE=Tom T Hall - Country Songs For Children
DYEAR=1995
DGENRE=Country
TTITLE0=I Love
TTITLE1=Sneaky Snake
TTITLE2=The Mysterious Fox Of Fox Hollow
TTITLE3=How To Talk To A Little Baby Goat
TTITLE4=The Barn Dance
TTITLE5=Ole Lonesome George The Basset
TTITLE6=I Wish I Had A Million Friends
TTITLE7=Everybody Loves To Hear A Bird Sing
TTITLE8=I Like To Feel Pretty Inside
TTITLE9=The Song Of The One Legged Chicken
TTITLE10=I Care
TTITLE11=Let's Go Shopping Today
TTITLE12=Fox Hollow's Animal Train
TTITLE13=The Dancing Tree
TTITLE14=Let's Play Remember
TTITLE15=Randy Raccoon
TTITLE16=The Duck And The Rooster
TTITLE17=You Are A Star (Brittni's Song)
EXTD=
EXTT0=
EXTT1=
EXTT2=
EXTT3=
EXTT4=
EXTT5=
EXTT6=
EXTT7=
EXTT8=
EXTT9=
EXTT10=
EXTT11=
EXTT12=
EXTT13=
EXTT14=
EXTT15=
EXTT16=
EXTT17=
PLAYORDER=
